# xmcd CD database file
#
# Track frame offsets:
#	150
#	16869
#	38081
#	65611
#
# Disc length: 1215 seconds
#
# Revision: 0
# Processed by: cddbd v1.5.2PL0 Copyright (c) Steve Scherf et al.
# Submitted via: CDex 1.75
#
DISCID=2904bd04
DTITLE=Johnny Holliday - the standard
DYEAR=1900
DGENRE=Jazz
TTITLE0=In The Wee Small Hours
TTITLE1=What A Wonderful World
TTITLE2=Round Midnight
TTITLE3=I Remember Clifford
EXTD=
EXTT0=
EXTT1=
EXTT2=
EXTT3=
PLAYORDER=
